<svg xmlns="http://www.w3.org/2000/svg" version="1.0" preserveAspectRatio="xMidYMid meet" viewBox="162.15 1.09 675.42 813.91">

<g transform="translate(0.000000,1000.000000) scale(0.100000,-0.100000)" fill="#000000" stroke="none">
<path d="M6945 9951 c-84 -46 -334 -198 -355 -216 -8 -7 -31 -21 -50 -30 -19 -10 -75 -45 -124 -77 -49 -33 -99 -64 -110 -69 -12 -4 -39 -22 -61 -38 -22 -17 -53 -38 -70 -47 -16 -9 -39 -24 -50 -34 -11 -9 -42 -29 -70 -45 -27 -16 -77 -46 -110 -68 -107 -71 -131 -76 -383 -88 -218 -9 -284 -14 -582 -39 -74 -6 -254 -10 -400 -8 -290 3 -267 -1 -395 72 -33 19 -100 56 -150 81 -49 26 -103 55 -120 66 -16 10 -43 26 -60 34 -16 8 -61 33 -100 55 -73 41 -213 111 -300 150 -27 12 -70 32 -95 45 -25 12 -65 32 -90 44 -25 13 -53 27 -63 32 -81 43 -105 53 -147 57 -26 2 -57 -1 -68 -7 -22 -12 -50 -65 -85 -161 -63 -176 -119 -339 -127 -368 -4 -18 -13 -38 -18 -45 -13 -15 -292 -850 -292 -873 0 -9 -6 -30 -14 -47 -8 -18 -24 -66 -36 -107 -26 -91 -48 -154 -66 -197 -8 -17 -14 -40 -14 -50 0 -10 -4 -23 -9 -29 -5 -5 -21 -54 -35 -109 -14 -55 -35 -134 -47 -175 -12 -41 -25 -97 -30 -125 -5 -27 -14 -59 -19 -70 -9 -20 -33 -104 -65 -225 -9 -36 -23 -83 -31 -105 -7 -22 -23 -76 -34 -120 -63 -240 -92 -357 -104 -415 -8 -36 -23 -99 -35 -140 -11 -41 -32 -131 -47 -200 -14 -68 -27 -127 -30 -131 -2 -4 -8 -33 -13 -66 -6 -32 -26 -134 -46 -228 -53 -254 -115 -623 -151 -903 -11 -84 -17 -258 -21 -613 -9 -810 20 -1068 148 -1305 90 -167 188 -284 319 -383 105 -79 271 -181 380 -233 124 -58 191 -88 199 -88 5 0 23 -7 40 -15 17 -8 45 -22 62 -30 17 -8 38 -15 48 -15 9 0 21 -4 26 -9 17 -17 323 -114 525 -167 156 -41 241 -61 324 -75 33 -5 63 -12 68 -15 9 -6 149 -28 275 -44 40 -5 89 -14 110 -19 21 -6 88 -16 148 -21 61 -6 155 -15 210 -20 251 -25 367 -30 765 -30 434 0 484 3 855 51 172 22 382 61 566 104 80 19 153 35 162 35 10 0 25 4 35 9 9 5 55 19 102 31 47 11 94 25 105 29 11 5 49 19 85 31 36 12 77 28 92 36 14 8 31 14 38 14 15 0 191 88 247 123 24 15 46 27 50 27 32 0 251 178 353 287 97 104 144 169 225 320 41 75 125 353 125 411 0 16 7 48 15 73 8 24 19 114 24 199 6 85 15 180 21 210 10 54 6 557 -5 645 -3 22 -9 129 -14 238 -5 108 -14 221 -20 250 -5 28 -12 84 -16 122 -3 39 -12 113 -20 165 -8 52 -21 147 -30 210 -9 63 -20 138 -25 165 -5 28 -16 95 -25 150 -32 207 -46 277 -70 350 -8 22 -18 69 -24 105 -17 101 -38 209 -56 280 -9 36 -23 99 -30 140 -8 41 -18 89 -24 105 -13 40 -41 168 -41 190 0 10 -13 59 -29 109 -27 88 -37 124 -68 251 -8 33 -21 85 -29 115 -7 30 -20 82 -28 115 -14 56 -41 151 -87 305 -11 36 -19 72 -19 80 0 8 -11 47 -25 85 -13 39 -25 80 -25 92 0 13 -6 40 -14 60 -13 36 -43 131 -115 369 -17 55 -31 109 -31 120 0 10 -14 57 -30 104 -17 46 -30 93 -30 105 -1 11 -14 58 -30 105 -17 47 -30 92 -30 100 0 8 -7 28 -15 43 -8 15 -17 45 -21 65 -4 20 -19 76 -35 125 -16 48 -29 95 -29 105 0 9 -7 26 -15 36 -8 11 -15 31 -15 45 0 22 -35 138 -75 251 -28 78 -37 107 -49 152 -30 110 -67 122 -181 59z m-91 -449 c28 -85 60 -375 45 -404 -7 -14 -22 -18 -62 -18 -100 0 -477 45 -556 67 l-55 15 40 34 c43 37 311 226 417 293 66 43 136 73 149 65 3 -2 14 -26 22 -52z m-3477 -68 c163 -76 226 -109 303 -158 97 -61 169 -111 170 -118 0 -3 -21 -11 -47 -16 -59 -13 -501 -23 -603 -14 l-75 7 2 93 c3 93 26 190 58 239 24 35 61 29 192 -33z m3733 -1734 c10 -6 11 -13 5 -19 -14 -14 -149 -52 -465 -131 -442 -111 -772 -177 -812 -164 -20 6 -19 8 13 24 108 56 923 258 1164 289 39 4 72 9 75 10 3 0 12 -4 20 -9z m-3960 -51 c223 -41 801 -156 927 -185 146 -33 127 -70 -28 -53 -119 13 -382 60 -721 128 -477 96 -556 120 -521 155 11 11 101 -1 343 -45z m2136 -352 c4 -4 1 -18 -6 -32 -20 -37 -164 -200 -205 -231 -32 -24 -38 -26 -60 -14 -32 17 -238 218 -254 248 -10 20 -9 23 11 32 27 11 503 9 514 -3z m-2096 -97 c415 -25 889 -69 973 -91 43 -11 48 -26 10 -35 -74 -19 -1091 50 -1285 86 -89 17 -111 43 -43 53 33 4 84 2 345 -13z m4109 -4 c28 -33 4 -43 -142 -55 -570 -48 -1065 -81 -1199 -81 -76 0 -121 11 -107 25 22 21 304 53 839 95 424 32 592 37 609 16z"/>
</g>
</svg>